<svg width="16" height="16" viewBox="0 0 16 16" fill="none" xmlns="http://www.w3.org/2000/svg">
<path d="M13.4276 12.5693H12.999V6.49783C12.999 3.97819 11.1365 1.89604 8.71331 1.54961V0.854972C8.71331 0.460329 8.39367 0.140686 7.99902 0.140686C7.60438 0.140686 7.28474 0.460329 7.28474 0.854972V1.54961C4.86152 1.89604 2.99902 3.97819 2.99902 6.49783V12.5693H2.57045C2.25438 12.5693 1.99902 12.8246 1.99902 13.1407V13.7121C1.99902 13.7907 2.06331 13.855 2.14188 13.855H5.99902C5.99902 14.9585 6.89545 15.855 7.99902 15.855C9.1026 15.855 9.99902 14.9585 9.99902 13.855H13.8562C13.9347 13.855 13.999 13.7907 13.999 13.7121V13.1407C13.999 12.8246 13.7437 12.5693 13.4276 12.5693ZM7.99902 14.7121C7.52581 14.7121 7.14188 14.3282 7.14188 13.855H8.85617C8.85617 14.3282 8.47224 14.7121 7.99902 14.7121ZM4.28474 12.5693V6.49783C4.28474 5.50497 4.67045 4.57283 5.37224 3.87104C6.07402 3.16926 7.00617 2.78354 7.99902 2.78354C8.99188 2.78354 9.92402 3.16926 10.6258 3.87104C11.3276 4.57283 11.7133 5.50497 11.7133 6.49783V12.5693H4.28474Z" fill="white"/>
</svg>
