<svg width="31" height="31" viewBox="0 0 31 31" fill="none" xmlns="http://www.w3.org/2000/svg">
<path d="M27.371 7.37168L17.3051 1.54138C16.6812 1.16658 15.9741 1 15.2254 1C14.5183 1 13.8112 1.16658 13.1456 1.54138L3.07973 7.37168C1.7903 8.12129 1 9.45389 1 10.9532V22.5721C1 24.0297 1.7903 25.404 3.07973 26.1536L8.11269 29.0687L12.5217 21.4477L10.6084 20.3233C10.1092 20.0318 9.81809 19.532 9.81809 18.949V14.5346C9.81809 13.9933 10.1092 13.4519 10.6084 13.1604L14.4351 10.9532C14.6846 10.8282 14.9342 10.7449 15.2254 10.7449C15.5165 10.7449 15.7661 10.8282 16.0157 10.9532L19.8424 13.1604C20.3415 13.4519 20.6327 13.9516 20.6327 14.5346V18.949C20.6327 19.4904 20.3415 20.0318 19.8424 20.3233L17.929 21.4477L22.3381 29.0687L27.371 26.1536C28.6605 25.404 29.4507 24.0713 29.4507 22.5721V10.9532C29.4507 9.45389 28.6605 8.12129 27.371 7.37168Z" fill="white" stroke="white" stroke-width="2" stroke-miterlimit="10"/>
<path d="M12.5637 21.4477L10.6504 20.3233C10.1512 20.0318 9.86009 19.532 9.86009 18.949V14.5346C9.86009 13.9933 10.1512 13.4519 10.6504 13.1604L14.4771 10.9532C14.7266 10.8282 14.9762 10.7449 15.2674 10.7449V1C14.5603 1 13.8532 1.16658 13.1876 1.54138L3.12172 7.37168C1.83229 8.12129 1.04199 9.45389 1.04199 10.9532V22.5721C1.04199 24.0297 1.83229 25.404 3.12172 26.1536L8.15469 29.0687L12.5637 21.4477Z" fill="#EF4E3E"/>
<path d="M27.3712 7.37168L17.3053 1.54138C16.6814 1.16658 15.9743 1 15.2256 1V10.7866C15.5168 10.7866 15.7663 10.8699 16.0159 10.9948L19.8426 13.202C20.3417 13.4935 20.6329 13.9933 20.6329 14.5763V18.9907C20.6329 19.532 20.3417 20.0734 19.8426 20.3649L17.9292 21.4894L22.3383 29.1104L27.3712 26.1952C28.6607 25.4456 29.451 24.113 29.451 22.6138V10.9532C29.451 9.45389 28.6607 8.12129 27.3712 7.37168Z" fill="#E7C346"/>
</svg>
