<svg width="21" height="20" viewBox="0 0 21 20" fill="none" xmlns="http://www.w3.org/2000/svg">
<path d="M8.16832 11.0751L3.75999 15.4917V14.1667C3.75999 13.9457 3.67219 13.7338 3.51591 13.5775C3.35963 13.4212 3.14767 13.3334 2.92666 13.3334C2.70564 13.3334 2.49368 13.4212 2.3374 13.5775C2.18112 13.7338 2.09332 13.9457 2.09332 14.1667V17.5001C2.09464 17.609 2.11729 17.7166 2.15999 17.8167C2.24455 18.0204 2.40636 18.1822 2.60999 18.2667C2.71017 18.3095 2.81776 18.3321 2.92666 18.3334H6.25999C6.481 18.3334 6.69297 18.2456 6.84925 18.0893C7.00553 17.9331 7.09332 17.7211 7.09332 17.5001C7.09332 17.2791 7.00553 17.0671 6.84925 16.9108C6.69297 16.7545 6.481 16.6667 6.25999 16.6667H4.93499L9.35166 12.2584C9.50858 12.1015 9.59673 11.8887 9.59673 11.6667C9.59673 11.4448 9.50858 11.232 9.35166 11.0751C9.19474 10.9182 8.98191 10.83 8.75999 10.83C8.53807 10.83 8.32524 10.9182 8.16832 11.0751ZM4.93499 3.33341H6.25999C6.481 3.33341 6.69297 3.24562 6.84925 3.08934C7.00553 2.93306 7.09332 2.7211 7.09332 2.50008C7.09332 2.27907 7.00553 2.06711 6.84925 1.91083C6.69297 1.75455 6.481 1.66675 6.25999 1.66675H2.92666C2.81776 1.66806 2.71017 1.69071 2.60999 1.73341C2.40636 1.81798 2.24455 1.97979 2.15999 2.18341C2.11729 2.2836 2.09464 2.39118 2.09332 2.50008V5.83342C2.09332 6.05443 2.18112 6.26639 2.3374 6.42267C2.49368 6.57895 2.70564 6.66675 2.92666 6.66675C3.14767 6.66675 3.35963 6.57895 3.51591 6.42267C3.67219 6.26639 3.75999 6.05443 3.75999 5.83342V4.50841L8.16832 8.92508C8.24579 9.00319 8.33796 9.06518 8.43951 9.10749C8.54106 9.1498 8.64998 9.17158 8.75999 9.17158C8.87 9.17158 8.97892 9.1498 9.08047 9.10749C9.18202 9.06518 9.27419 9.00319 9.35166 8.92508C9.42976 8.84761 9.49176 8.75545 9.53407 8.6539C9.57637 8.55235 9.59816 8.44342 9.59816 8.33342C9.59816 8.22341 9.57637 8.11448 9.53407 8.01293C9.49176 7.91139 9.42976 7.81922 9.35166 7.74175L4.93499 3.33341ZM17.9267 13.3334C17.7056 13.3334 17.4937 13.4212 17.3374 13.5775C17.1811 13.7338 17.0933 13.9457 17.0933 14.1667V15.4917L12.685 11.0751C12.5281 10.9182 12.3152 10.83 12.0933 10.83C11.8714 10.83 11.6586 10.9182 11.5017 11.0751C11.3447 11.232 11.2566 11.4448 11.2566 11.6667C11.2566 11.8887 11.3447 12.1015 11.5017 12.2584L15.9183 16.6667H14.5933C14.3723 16.6667 14.1603 16.7545 14.0041 16.9108C13.8478 17.0671 13.76 17.2791 13.76 17.5001C13.76 17.7211 13.8478 17.9331 14.0041 18.0893C14.1603 18.2456 14.3723 18.3334 14.5933 18.3334H17.9267C18.0356 18.3321 18.1431 18.3095 18.2433 18.2667C18.4469 18.1822 18.6088 18.0204 18.6933 17.8167C18.736 17.7166 18.7587 17.609 18.76 17.5001V14.1667C18.76 13.9457 18.6722 13.7338 18.5159 13.5775C18.3596 13.4212 18.1477 13.3334 17.9267 13.3334ZM18.6933 2.18341C18.6088 1.97979 18.4469 1.81798 18.2433 1.73341C18.1431 1.69071 18.0356 1.66806 17.9267 1.66675H14.5933C14.3723 1.66675 14.1603 1.75455 14.0041 1.91083C13.8478 2.06711 13.76 2.27907 13.76 2.50008C13.76 2.7211 13.8478 2.93306 14.0041 3.08934C14.1603 3.24562 14.3723 3.33341 14.5933 3.33341H15.9183L11.5017 7.74175C11.4235 7.81922 11.3616 7.91139 11.3192 8.01293C11.2769 8.11448 11.2552 8.22341 11.2552 8.33342C11.2552 8.44342 11.2769 8.55235 11.3192 8.6539C11.3616 8.75545 11.4235 8.84761 11.5017 8.92508C11.5791 9.00319 11.6713 9.06518 11.7728 9.10749C11.8744 9.1498 11.9833 9.17158 12.0933 9.17158C12.2033 9.17158 12.3123 9.1498 12.4138 9.10749C12.5154 9.06518 12.6075 9.00319 12.685 8.92508L17.0933 4.50841V5.83342C17.0933 6.05443 17.1811 6.26639 17.3374 6.42267C17.4937 6.57895 17.7056 6.66675 17.9267 6.66675C18.1477 6.66675 18.3596 6.57895 18.5159 6.42267C18.6722 6.26639 18.76 6.05443 18.76 5.83342V2.50008C18.7587 2.39118 18.736 2.2836 18.6933 2.18341Z" fill="black"/>
</svg>
