<svg width="17" height="14" viewBox="0 0 17 14" fill="none" xmlns="http://www.w3.org/2000/svg">
<path d="M16.6933 6.66658C15.01 2.75825 11.8433 0.333252 8.42663 0.333252C5.00996 0.333252 1.8433 2.75825 0.159964 6.66658C0.114078 6.77172 0.0903931 6.8852 0.0903931 6.99992C0.0903931 7.11463 0.114078 7.22811 0.159964 7.33325C1.8433 11.2416 5.00996 13.6666 8.42663 13.6666C11.8433 13.6666 15.01 11.2416 16.6933 7.33325C16.7392 7.22811 16.7629 7.11463 16.7629 6.99992C16.7629 6.8852 16.7392 6.77172 16.6933 6.66658ZM8.42663 11.9999C5.78496 11.9999 3.28496 10.0916 1.8433 6.99992C3.28496 3.90825 5.78496 1.99992 8.42663 1.99992C11.0683 1.99992 13.5683 3.90825 15.01 6.99992C13.5683 10.0916 11.0683 11.9999 8.42663 11.9999ZM8.42663 3.66658C7.76736 3.66658 7.12289 3.86208 6.57473 4.22835C6.02657 4.59462 5.59932 5.11522 5.34703 5.72431C5.09474 6.33339 5.02873 7.00362 5.15735 7.65022C5.28596 8.29682 5.60343 8.89077 6.06961 9.35694C6.53578 9.82312 7.12973 10.1406 7.77633 10.2692C8.42293 10.3978 9.09315 10.3318 9.70224 10.0795C10.3113 9.82722 10.8319 9.39998 11.1982 8.85182C11.5645 8.30365 11.76 7.65919 11.76 6.99992C11.76 6.11586 11.4088 5.26802 10.7837 4.6429C10.1585 4.01777 9.31069 3.66658 8.42663 3.66658ZM8.42663 8.66658C8.09699 8.66658 7.77476 8.56884 7.50068 8.3857C7.2266 8.20256 7.01298 7.94227 6.88683 7.63772C6.76068 7.33318 6.72768 6.99807 6.79199 6.67477C6.8563 6.35147 7.01503 6.05449 7.24812 5.82141C7.48121 5.58832 7.77818 5.42958 8.10148 5.36528C8.42478 5.30097 8.75989 5.33397 9.06444 5.46012C9.36898 5.58626 9.62928 5.79989 9.81241 6.07397C9.99555 6.34805 10.0933 6.67028 10.0933 6.99992C10.0933 7.44195 9.9177 7.86587 9.60514 8.17843C9.29258 8.49099 8.86866 8.66658 8.42663 8.66658Z" fill="black"/>
</svg>
